<?xml version="1.0" encoding="UTF-8" standalone="no"?>
<svg
   width="25"
   height="17"
   viewBox="0 0 25 17"
   fill="none"
   version="1.1"
   id="svg24"
   sodipodi:docname="logo.svg"
   inkscape:version="1.2.1 (9c6d41e410, 2022-07-14)"
   xmlns:inkscape="http://www.inkscape.org/namespaces/inkscape"
   xmlns:sodipodi="http://sodipodi.sourceforge.net/DTD/sodipodi-0.dtd"
   xmlns="http://www.w3.org/2000/svg"
   xmlns:svg="http://www.w3.org/2000/svg">
  <defs
     id="defs28" />
  <sodipodi:namedview
     id="namedview26"
     pagecolor="#ffffff"
     bordercolor="#999999"
     borderopacity="1"
     inkscape:showpageshadow="0"
     inkscape:pageopacity="0"
     inkscape:pagecheckerboard="0"
     inkscape:deskcolor="#d1d1d1"
     showgrid="false"
     inkscape:zoom="11.823529"
     inkscape:cx="0.50746269"
     inkscape:cy="-9.1766169"
     inkscape:window-width="1920"
     inkscape:window-height="991"
     inkscape:window-x="-9"
     inkscape:window-y="-9"
     inkscape:window-maximized="1"
     inkscape:current-layer="svg24" />
  <path
     d="M2.5 5C3.88071 5 5 3.88071 5 2.5C5 1.11929 3.88071 0 2.5 0C1.11929 0 0 1.11929 0 2.5C0 3.88071 1.11929 5 2.5 5Z"
     fill="#DD9C3C"
     id="path16" />
  <path
     d="M22.5 5C23.8807 5 25 3.88071 25 2.5C25 1.11929 23.8807 0 22.5 0C21.1193 0 20 1.11929 20 2.5C20 3.88071 21.1193 5 22.5 5Z"
     fill="#DD9C3C"
     id="path18" />
  <path
     d="M14.1335 0.982396C14.7596 1.52496 14.8272 2.47229 14.2847 3.09833L3.24946 15.8313C2.7069 16.4573 1.75957 16.525 1.13353 15.9824C0.5075 15.4398 0.439834 14.4925 0.982395 13.8665L12.0176 1.13353C12.5602 0.5075 13.5075 0.439834 14.1335 0.982396Z"
     fill="#DD9C3C"
     id="path20" />
  <path
     d="M18.4471 9.02585C18.9558 8.37193 18.8379 7.42952 18.184 6.92091C17.5301 6.41231 16.5877 6.53011 16.0791 7.18403L10.9209 13.816C10.4123 14.4699 10.5301 15.4123 11.184 15.9209C11.8379 16.4295 12.7804 16.3117 13.289 15.6578L18.4471 9.02585Z"
     fill="#DD9C3C"
     id="path22" />
</svg>
